<mxfile host="app.diagrams.net" modified="2022-04-28T05:36:46.624Z" agent="5.0 (Windows NT 10.0; Win64; x64) AppleWebKit/537.36 (KHTML, like Gecko) Chrome/100.0.4896.127 Safari/537.36" etag="mYjUFJAAM8DFxei9IrrJ" version="17.4.6" type="github">
  <diagram id="ypp5DjGhs4tE9Lc2tg0N" name="Page-1">
    <mxGraphModel dx="1659" dy="792" grid="1" gridSize="10" guides="1" tooltips="1" connect="1" arrows="1" fold="1" page="1" pageScale="1" pageWidth="10000" pageHeight="10000" math="0" shadow="0">
      <root>
        <mxCell id="0" />
        <mxCell id="1" parent="0" />
        <mxCell id="xnNpgqGrCbHzRgiXPUvK-187" value="" style="group" vertex="1" connectable="0" parent="1">
          <mxGeometry x="55" y="240" width="1860" height="645" as="geometry" />
        </mxCell>
        <mxCell id="SPQnVZBuOhSP_aongafS-108" value="40x40" style="text;html=1;align=center;verticalAlign=middle;resizable=0;points=[];autosize=1;strokeColor=none;fillColor=none;rotation=-90;" parent="xnNpgqGrCbHzRgiXPUvK-187" vertex="1">
          <mxGeometry x="-15" y="610" width="50" height="20" as="geometry" />
        </mxCell>
        <mxCell id="SPQnVZBuOhSP_aongafS-5" value="" style="shape=flexArrow;endArrow=classic;html=1;rounded=0;fillColor=#b3b3b3;strokeColor=none;" parent="xnNpgqGrCbHzRgiXPUvK-187" edge="1">
          <mxGeometry width="50" height="50" relative="1" as="geometry">
            <mxPoint x="145" y="100" as="sourcePoint" />
            <mxPoint x="1715" y="100" as="targetPoint" />
          </mxGeometry>
        </mxCell>
        <mxCell id="SPQnVZBuOhSP_aongafS-57" value="" style="shape=flexArrow;endArrow=classic;html=1;rounded=0;fillColor=#b3b3b3;strokeColor=none;" parent="xnNpgqGrCbHzRgiXPUvK-187" edge="1">
          <mxGeometry width="50" height="50" relative="1" as="geometry">
            <mxPoint x="285" y="217.20999999999998" as="sourcePoint" />
            <mxPoint x="1535" y="220" as="targetPoint" />
          </mxGeometry>
        </mxCell>
        <mxCell id="xnNpgqGrCbHzRgiXPUvK-20" value="" style="group" vertex="1" connectable="0" parent="xnNpgqGrCbHzRgiXPUvK-187">
          <mxGeometry x="15" width="134" height="640" as="geometry" />
        </mxCell>
        <mxCell id="SPQnVZBuOhSP_aongafS-13" value="" style="rounded=0;whiteSpace=wrap;html=1;fillColor=#FFA1B0;gradientColor=none;strokeColor=#1B0AFF;" parent="xnNpgqGrCbHzRgiXPUvK-20" vertex="1">
          <mxGeometry x="30" y="39.54285714285714" width="10" height="600.4571428571429" as="geometry" />
        </mxCell>
        <mxCell id="xnNpgqGrCbHzRgiXPUvK-1" value="80" style="text;html=1;align=center;verticalAlign=middle;resizable=0;points=[];autosize=1;strokeColor=none;fillColor=none;" vertex="1" parent="xnNpgqGrCbHzRgiXPUvK-20">
          <mxGeometry x="10" y="19.54" width="30" height="20" as="geometry" />
        </mxCell>
        <mxCell id="xnNpgqGrCbHzRgiXPUvK-128" value="" style="rounded=0;whiteSpace=wrap;html=1;fillColor=#FFA1B0;gradientColor=none;strokeColor=#CF0C33;" vertex="1" parent="xnNpgqGrCbHzRgiXPUvK-20">
          <mxGeometry x="10" y="39.54285714285714" width="20" height="600.4571428571429" as="geometry" />
        </mxCell>
        <mxCell id="xnNpgqGrCbHzRgiXPUvK-147" value="" style="group" vertex="1" connectable="0" parent="xnNpgqGrCbHzRgiXPUvK-20">
          <mxGeometry x="47" y="39.54285714285714" width="40" height="600.4571428571429" as="geometry" />
        </mxCell>
        <mxCell id="SPQnVZBuOhSP_aongafS-14" value="" style="rounded=0;whiteSpace=wrap;html=1;fillColor=#FFA1B0;gradientColor=none;strokeColor=#05031A;" parent="xnNpgqGrCbHzRgiXPUvK-147" vertex="1">
          <mxGeometry y="3.083216222015445e-14" width="20" height="600.4571428571429" as="geometry" />
        </mxCell>
        <mxCell id="xnNpgqGrCbHzRgiXPUvK-146" value="" style="rounded=0;whiteSpace=wrap;html=1;fillColor=#FFA1B0;gradientColor=none;strokeColor=#05031A;" vertex="1" parent="xnNpgqGrCbHzRgiXPUvK-147">
          <mxGeometry x="20" width="20" height="600.4571428571429" as="geometry" />
        </mxCell>
        <mxCell id="xnNpgqGrCbHzRgiXPUvK-45" value="" style="shape=flexArrow;endArrow=classic;html=1;rounded=0;fillColor=#b3b3b3;strokeColor=none;" edge="1" parent="xnNpgqGrCbHzRgiXPUvK-187">
          <mxGeometry width="50" height="50" relative="1" as="geometry">
            <mxPoint x="485" y="340" as="sourcePoint" />
            <mxPoint x="1295" y="340" as="targetPoint" />
          </mxGeometry>
        </mxCell>
        <mxCell id="xnNpgqGrCbHzRgiXPUvK-46" value="" style="shape=flexArrow;endArrow=classic;html=1;rounded=0;fillColor=#b3b3b3;strokeColor=none;" edge="1" parent="xnNpgqGrCbHzRgiXPUvK-187">
          <mxGeometry width="50" height="50" relative="1" as="geometry">
            <mxPoint x="745" y="460" as="sourcePoint" />
            <mxPoint x="965" y="460" as="targetPoint" />
          </mxGeometry>
        </mxCell>
        <mxCell id="xnNpgqGrCbHzRgiXPUvK-149" value="" style="group" vertex="1" connectable="0" parent="xnNpgqGrCbHzRgiXPUvK-187">
          <mxGeometry x="145" y="160" width="120" height="480" as="geometry" />
        </mxCell>
        <mxCell id="SPQnVZBuOhSP_aongafS-35" value="" style="rounded=0;whiteSpace=wrap;html=1;fillColor=#FFA1B0;gradientColor=none;strokeColor=#05031A;" parent="xnNpgqGrCbHzRgiXPUvK-149" vertex="1">
          <mxGeometry width="20" height="480" as="geometry" />
        </mxCell>
        <mxCell id="SPQnVZBuOhSP_aongafS-36" value="" style="rounded=0;whiteSpace=wrap;html=1;fillColor=#FFA1B0;gradientColor=none;strokeColor=#05031A;" parent="xnNpgqGrCbHzRgiXPUvK-149" vertex="1">
          <mxGeometry x="20" width="40" height="480" as="geometry" />
        </mxCell>
        <mxCell id="SPQnVZBuOhSP_aongafS-39" value="" style="rounded=0;whiteSpace=wrap;html=1;fillColor=#FFA1B0;gradientColor=none;strokeColor=#05031A;" parent="xnNpgqGrCbHzRgiXPUvK-149" vertex="1">
          <mxGeometry x="60" width="40" height="480" as="geometry" />
        </mxCell>
        <mxCell id="xnNpgqGrCbHzRgiXPUvK-153" value="" style="group" vertex="1" connectable="0" parent="xnNpgqGrCbHzRgiXPUvK-187">
          <mxGeometry x="295" y="280" width="150" height="360" as="geometry" />
        </mxCell>
        <mxCell id="xnNpgqGrCbHzRgiXPUvK-150" value="" style="rounded=0;whiteSpace=wrap;html=1;fillColor=#FFA1B0;gradientColor=none;strokeColor=#05031A;" vertex="1" parent="xnNpgqGrCbHzRgiXPUvK-153">
          <mxGeometry x="-10" width="40" height="359.99999999999994" as="geometry" />
        </mxCell>
        <mxCell id="xnNpgqGrCbHzRgiXPUvK-152" value="" style="rounded=0;whiteSpace=wrap;html=1;fillColor=#FFA1B0;gradientColor=none;strokeColor=#05031A;" vertex="1" parent="xnNpgqGrCbHzRgiXPUvK-153">
          <mxGeometry x="30" width="60" height="359.99999999999994" as="geometry" />
        </mxCell>
        <mxCell id="xnNpgqGrCbHzRgiXPUvK-151" value="" style="rounded=0;whiteSpace=wrap;html=1;fillColor=#FFA1B0;gradientColor=none;strokeColor=#05031A;" vertex="1" parent="xnNpgqGrCbHzRgiXPUvK-153">
          <mxGeometry x="90" width="60" height="359.99999999999994" as="geometry" />
        </mxCell>
        <mxCell id="xnNpgqGrCbHzRgiXPUvK-163" value="" style="group;fillColor=#FFA1B0;" vertex="1" connectable="0" parent="xnNpgqGrCbHzRgiXPUvK-187">
          <mxGeometry x="755" y="520" width="230" height="120" as="geometry" />
        </mxCell>
        <mxCell id="xnNpgqGrCbHzRgiXPUvK-159" value="" style="group" vertex="1" connectable="0" parent="xnNpgqGrCbHzRgiXPUvK-163">
          <mxGeometry width="180" height="120" as="geometry" />
        </mxCell>
        <mxCell id="xnNpgqGrCbHzRgiXPUvK-160" value="" style="rounded=0;whiteSpace=wrap;html=1;fillColor=#FFA1B0;gradientColor=none;strokeColor=#05031A;" vertex="1" parent="xnNpgqGrCbHzRgiXPUvK-159">
          <mxGeometry x="-11.999999999999998" width="72" height="120" as="geometry" />
        </mxCell>
        <mxCell id="xnNpgqGrCbHzRgiXPUvK-161" value="" style="rounded=0;whiteSpace=wrap;html=1;fillColor=#FFA1B0;gradientColor=none;strokeColor=#05031A;" vertex="1" parent="xnNpgqGrCbHzRgiXPUvK-159">
          <mxGeometry x="60" width="95.99999999999999" height="120" as="geometry" />
        </mxCell>
        <mxCell id="xnNpgqGrCbHzRgiXPUvK-162" value="" style="rounded=0;whiteSpace=wrap;html=1;fillColor=#FFA1B0;gradientColor=none;strokeColor=#05031A;" vertex="1" parent="xnNpgqGrCbHzRgiXPUvK-163">
          <mxGeometry x="150.0009523809524" width="87.61904761904762" height="120" as="geometry" />
        </mxCell>
        <mxCell id="xnNpgqGrCbHzRgiXPUvK-164" value="" style="group;fillColor=#FFA1B0;" vertex="1" connectable="0" parent="xnNpgqGrCbHzRgiXPUvK-187">
          <mxGeometry x="495" y="400" width="210" height="240" as="geometry" />
        </mxCell>
        <mxCell id="xnNpgqGrCbHzRgiXPUvK-155" value="" style="group" vertex="1" connectable="0" parent="xnNpgqGrCbHzRgiXPUvK-164">
          <mxGeometry width="150" height="240" as="geometry" />
        </mxCell>
        <mxCell id="xnNpgqGrCbHzRgiXPUvK-156" value="" style="rounded=0;whiteSpace=wrap;html=1;fillColor=#FFA1B0;gradientColor=none;strokeColor=#05031A;" vertex="1" parent="xnNpgqGrCbHzRgiXPUvK-155">
          <mxGeometry x="-10" width="60" height="240" as="geometry" />
        </mxCell>
        <mxCell id="xnNpgqGrCbHzRgiXPUvK-157" value="" style="rounded=0;whiteSpace=wrap;html=1;fillColor=#FFA1B0;gradientColor=none;strokeColor=#05031A;" vertex="1" parent="xnNpgqGrCbHzRgiXPUvK-155">
          <mxGeometry x="50" width="80" height="240" as="geometry" />
        </mxCell>
        <mxCell id="xnNpgqGrCbHzRgiXPUvK-158" value="" style="rounded=0;whiteSpace=wrap;html=1;fillColor=#FFA1B0;gradientColor=none;strokeColor=#05031A;" vertex="1" parent="xnNpgqGrCbHzRgiXPUvK-164">
          <mxGeometry x="130" width="80" height="240" as="geometry" />
        </mxCell>
        <mxCell id="xnNpgqGrCbHzRgiXPUvK-167" value="" style="rounded=0;whiteSpace=wrap;html=1;fillColor=#FFA1B0;gradientColor=none;strokeColor=#05031A;" vertex="1" parent="xnNpgqGrCbHzRgiXPUvK-187">
          <mxGeometry x="1135" y="400" width="80" height="240" as="geometry" />
        </mxCell>
        <mxCell id="xnNpgqGrCbHzRgiXPUvK-168" value="" style="rounded=0;whiteSpace=wrap;html=1;fillColor=#FFA1B0;gradientColor=none;strokeColor=#05031A;" vertex="1" parent="xnNpgqGrCbHzRgiXPUvK-187">
          <mxGeometry x="1215" y="400" width="80" height="240" as="geometry" />
        </mxCell>
        <mxCell id="xnNpgqGrCbHzRgiXPUvK-169" value="" style="rounded=0;whiteSpace=wrap;html=1;fillColor=#FFA1B0;gradientColor=none;strokeColor=#05031A;" vertex="1" parent="xnNpgqGrCbHzRgiXPUvK-187">
          <mxGeometry x="1085" y="400" width="50" height="240" as="geometry" />
        </mxCell>
        <mxCell id="xnNpgqGrCbHzRgiXPUvK-170" value="" style="rounded=0;whiteSpace=wrap;html=1;fillColor=#FFFFFF;gradientColor=none;strokeColor=#05031A;" vertex="1" parent="xnNpgqGrCbHzRgiXPUvK-187">
          <mxGeometry x="1035" y="400" width="50" height="240" as="geometry" />
        </mxCell>
        <mxCell id="xnNpgqGrCbHzRgiXPUvK-175" value="" style="group" vertex="1" connectable="0" parent="xnNpgqGrCbHzRgiXPUvK-187">
          <mxGeometry x="1355" y="280" width="180" height="360" as="geometry" />
        </mxCell>
        <mxCell id="xnNpgqGrCbHzRgiXPUvK-171" value="" style="rounded=0;whiteSpace=wrap;html=1;fillColor=#FFA1B0;gradientColor=none;strokeColor=#05031A;" vertex="1" parent="xnNpgqGrCbHzRgiXPUvK-175">
          <mxGeometry x="60" width="60" height="359.99999999999994" as="geometry" />
        </mxCell>
        <mxCell id="xnNpgqGrCbHzRgiXPUvK-172" value="" style="rounded=0;whiteSpace=wrap;html=1;fillColor=#FFA1B0;gradientColor=none;strokeColor=#05031A;" vertex="1" parent="xnNpgqGrCbHzRgiXPUvK-175">
          <mxGeometry x="120" width="60" height="359.99999999999994" as="geometry" />
        </mxCell>
        <mxCell id="xnNpgqGrCbHzRgiXPUvK-173" value="" style="rounded=0;whiteSpace=wrap;html=1;fillColor=#FFA1B0;gradientColor=none;strokeColor=#05031A;" vertex="1" parent="xnNpgqGrCbHzRgiXPUvK-175">
          <mxGeometry x="20" width="40" height="360" as="geometry" />
        </mxCell>
        <mxCell id="xnNpgqGrCbHzRgiXPUvK-174" value="" style="rounded=0;whiteSpace=wrap;html=1;fillColor=#FFFFFF;gradientColor=none;strokeColor=#05031A;" vertex="1" parent="xnNpgqGrCbHzRgiXPUvK-175">
          <mxGeometry x="-20" width="40" height="360" as="geometry" />
        </mxCell>
        <mxCell id="xnNpgqGrCbHzRgiXPUvK-176" value="" style="rounded=0;whiteSpace=wrap;html=1;fillColor=#FFA1B0;gradientColor=none;strokeColor=#05031A;" vertex="1" parent="xnNpgqGrCbHzRgiXPUvK-187">
          <mxGeometry x="1635" y="160" width="40" height="480" as="geometry" />
        </mxCell>
        <mxCell id="xnNpgqGrCbHzRgiXPUvK-177" value="" style="rounded=0;whiteSpace=wrap;html=1;fillColor=#FFA1B0;gradientColor=none;strokeColor=#05031A;" vertex="1" parent="xnNpgqGrCbHzRgiXPUvK-187">
          <mxGeometry x="1675" y="160" width="40" height="480" as="geometry" />
        </mxCell>
        <mxCell id="xnNpgqGrCbHzRgiXPUvK-178" value="" style="rounded=0;whiteSpace=wrap;html=1;fillColor=#FFA1B0;gradientColor=none;strokeColor=#05031A;" vertex="1" parent="xnNpgqGrCbHzRgiXPUvK-187">
          <mxGeometry x="1605" y="160" width="30" height="480" as="geometry" />
        </mxCell>
        <mxCell id="xnNpgqGrCbHzRgiXPUvK-179" value="" style="rounded=0;whiteSpace=wrap;html=1;fillColor=#FFFFFF;gradientColor=none;strokeColor=#05031A;" vertex="1" parent="xnNpgqGrCbHzRgiXPUvK-187">
          <mxGeometry x="1575" y="160" width="30" height="480" as="geometry" />
        </mxCell>
        <mxCell id="xnNpgqGrCbHzRgiXPUvK-180" value="" style="group" vertex="1" connectable="0" parent="xnNpgqGrCbHzRgiXPUvK-187">
          <mxGeometry x="1795" y="40.002857142857124" width="40" height="600.4571428571429" as="geometry" />
        </mxCell>
        <mxCell id="xnNpgqGrCbHzRgiXPUvK-181" value="" style="rounded=0;whiteSpace=wrap;html=1;fillColor=#FFA1B0;gradientColor=none;strokeColor=#05031A;" vertex="1" parent="xnNpgqGrCbHzRgiXPUvK-180">
          <mxGeometry y="3.083216222015445e-14" width="20" height="600.4571428571429" as="geometry" />
        </mxCell>
        <mxCell id="xnNpgqGrCbHzRgiXPUvK-182" value="" style="rounded=0;whiteSpace=wrap;html=1;fillColor=#FFA1B0;gradientColor=none;strokeColor=#05031A;" vertex="1" parent="xnNpgqGrCbHzRgiXPUvK-180">
          <mxGeometry x="20" width="20" height="600.4571428571429" as="geometry" />
        </mxCell>
        <mxCell id="xnNpgqGrCbHzRgiXPUvK-183" value="" style="rounded=0;whiteSpace=wrap;html=1;fillColor=#FFA1B0;gradientColor=none;strokeColor=#05031A;" vertex="1" parent="xnNpgqGrCbHzRgiXPUvK-187">
          <mxGeometry x="1775" y="40" width="20" height="600.46" as="geometry" />
        </mxCell>
        <mxCell id="xnNpgqGrCbHzRgiXPUvK-184" value="" style="rounded=0;whiteSpace=wrap;html=1;fillColor=#FFFFFF;gradientColor=none;strokeColor=#05031A;" vertex="1" parent="xnNpgqGrCbHzRgiXPUvK-187">
          <mxGeometry x="1755" y="40" width="20" height="600.46" as="geometry" />
        </mxCell>
        <mxCell id="xnNpgqGrCbHzRgiXPUvK-185" value="64" style="text;html=1;align=center;verticalAlign=middle;resizable=0;points=[];autosize=1;strokeColor=none;fillColor=none;" vertex="1" parent="xnNpgqGrCbHzRgiXPUvK-187">
          <mxGeometry x="1815" y="20" width="30" height="20" as="geometry" />
        </mxCell>
        <mxCell id="xnNpgqGrCbHzRgiXPUvK-186" value="40x40" style="text;html=1;align=center;verticalAlign=middle;resizable=0;points=[];autosize=1;strokeColor=none;fillColor=none;rotation=-90;" vertex="1" parent="xnNpgqGrCbHzRgiXPUvK-187">
          <mxGeometry x="1825" y="610" width="50" height="20" as="geometry" />
        </mxCell>
      </root>
    </mxGraphModel>
  </diagram>
</mxfile>
